<mxfile host="app.diagrams.net" agent="Mozilla/5.0 (Windows NT 10.0; Win64; x64) AppleWebKit/537.36 (KHTML, like Gecko) Chrome/134.0.0.0 Safari/537.36" version="26.1.0">
  <diagram name="Страница — 1" id="3HRoTn-EhWuBw5vEBSgD">
    <mxGraphModel dx="1674" dy="935" grid="0" gridSize="10" guides="1" tooltips="1" connect="1" arrows="1" fold="1" page="1" pageScale="1" pageWidth="827" pageHeight="1169" math="0" shadow="0">
      <root>
        <mxCell id="0" />
        <mxCell id="1" parent="0" />
        <mxCell id="DCC2djBZjVlrh-Dwz2gE-1" value="Combat Stage" style="rounded=0;whiteSpace=wrap;html=1;" parent="1" vertex="1">
          <mxGeometry x="640" y="410" width="120" height="60" as="geometry" />
        </mxCell>
        <mxCell id="DCC2djBZjVlrh-Dwz2gE-2" value="AI" style="rounded=0;whiteSpace=wrap;html=1;" parent="1" vertex="1">
          <mxGeometry x="649" y="609" width="120" height="60" as="geometry" />
        </mxCell>
        <mxCell id="DCC2djBZjVlrh-Dwz2gE-3" value="Player" style="rounded=0;whiteSpace=wrap;html=1;" parent="1" vertex="1">
          <mxGeometry x="790" y="614" width="120" height="60" as="geometry" />
        </mxCell>
        <mxCell id="DCC2djBZjVlrh-Dwz2gE-4" value="Cards&amp;nbsp;" style="rounded=0;whiteSpace=wrap;html=1;" parent="1" vertex="1">
          <mxGeometry x="496" y="695" width="120" height="60" as="geometry" />
        </mxCell>
        <mxCell id="DCC2djBZjVlrh-Dwz2gE-5" value="GameEngine" style="rounded=0;whiteSpace=wrap;html=1;" parent="1" vertex="1">
          <mxGeometry x="640" y="150" width="120" height="60" as="geometry" />
        </mxCell>
        <mxCell id="DCC2djBZjVlrh-Dwz2gE-7" value="Interface" style="rounded=0;whiteSpace=wrap;html=1;" parent="1" vertex="1">
          <mxGeometry x="1020" y="290" width="120" height="60" as="geometry" />
        </mxCell>
        <mxCell id="DCC2djBZjVlrh-Dwz2gE-9" value="Data storage" style="rounded=0;whiteSpace=wrap;html=1;" parent="1" vertex="1">
          <mxGeometry x="250" y="300" width="120" height="60" as="geometry" />
        </mxCell>
        <mxCell id="DCC2djBZjVlrh-Dwz2gE-10" value="Save" style="rounded=0;whiteSpace=wrap;html=1;" parent="1" vertex="1">
          <mxGeometry x="170" y="410" width="120" height="60" as="geometry" />
        </mxCell>
        <mxCell id="DCC2djBZjVlrh-Dwz2gE-11" value="Load" style="rounded=0;whiteSpace=wrap;html=1;" parent="1" vertex="1">
          <mxGeometry x="340" y="410" width="120" height="60" as="geometry" />
        </mxCell>
        <mxCell id="DCC2djBZjVlrh-Dwz2gE-12" value="Settings" style="rounded=0;whiteSpace=wrap;html=1;" parent="1" vertex="1">
          <mxGeometry x="1110" y="410" width="120" height="60" as="geometry" />
        </mxCell>
        <mxCell id="DCC2djBZjVlrh-Dwz2gE-13" value="Core" style="rounded=0;whiteSpace=wrap;html=1;" parent="1" vertex="1">
          <mxGeometry x="640" y="320" width="120" height="60" as="geometry" />
        </mxCell>
        <mxCell id="DCC2djBZjVlrh-Dwz2gE-14" value="Main menu" style="rounded=0;whiteSpace=wrap;html=1;" parent="1" vertex="1">
          <mxGeometry x="940" y="410" width="120" height="60" as="geometry" />
        </mxCell>
        <mxCell id="DCC2djBZjVlrh-Dwz2gE-16" value="" style="endArrow=classic;html=1;rounded=0;exitX=0;exitY=0.5;exitDx=0;exitDy=0;entryX=0.5;entryY=0;entryDx=0;entryDy=0;" parent="1" source="DCC2djBZjVlrh-Dwz2gE-5" target="DCC2djBZjVlrh-Dwz2gE-9" edge="1">
          <mxGeometry width="50" height="50" relative="1" as="geometry">
            <mxPoint x="630" y="720" as="sourcePoint" />
            <mxPoint x="680" y="670" as="targetPoint" />
          </mxGeometry>
        </mxCell>
        <mxCell id="DCC2djBZjVlrh-Dwz2gE-17" value="" style="endArrow=classic;html=1;rounded=0;exitX=0.25;exitY=1;exitDx=0;exitDy=0;entryX=0.5;entryY=0;entryDx=0;entryDy=0;" parent="1" source="DCC2djBZjVlrh-Dwz2gE-9" target="DCC2djBZjVlrh-Dwz2gE-10" edge="1">
          <mxGeometry width="50" height="50" relative="1" as="geometry">
            <mxPoint x="720" y="540" as="sourcePoint" />
            <mxPoint x="770" y="490" as="targetPoint" />
          </mxGeometry>
        </mxCell>
        <mxCell id="DCC2djBZjVlrh-Dwz2gE-18" value="" style="endArrow=classic;html=1;rounded=0;exitX=0.75;exitY=1;exitDx=0;exitDy=0;entryX=0.5;entryY=0;entryDx=0;entryDy=0;" parent="1" source="DCC2djBZjVlrh-Dwz2gE-9" target="DCC2djBZjVlrh-Dwz2gE-11" edge="1">
          <mxGeometry width="50" height="50" relative="1" as="geometry">
            <mxPoint x="720" y="540" as="sourcePoint" />
            <mxPoint x="770" y="490" as="targetPoint" />
          </mxGeometry>
        </mxCell>
        <mxCell id="DCC2djBZjVlrh-Dwz2gE-19" value="" style="endArrow=classic;html=1;rounded=0;exitX=0.5;exitY=1;exitDx=0;exitDy=0;entryX=0.5;entryY=0;entryDx=0;entryDy=0;" parent="1" source="DCC2djBZjVlrh-Dwz2gE-13" target="DCC2djBZjVlrh-Dwz2gE-1" edge="1">
          <mxGeometry width="50" height="50" relative="1" as="geometry">
            <mxPoint x="720" y="540" as="sourcePoint" />
            <mxPoint x="770" y="490" as="targetPoint" />
          </mxGeometry>
        </mxCell>
        <mxCell id="DCC2djBZjVlrh-Dwz2gE-21" value="" style="endArrow=classic;html=1;rounded=0;entryX=0.5;entryY=0;entryDx=0;entryDy=0;exitX=0.5;exitY=1;exitDx=0;exitDy=0;" parent="1" source="DCC2djBZjVlrh-Dwz2gE-5" target="DCC2djBZjVlrh-Dwz2gE-13" edge="1">
          <mxGeometry width="50" height="50" relative="1" as="geometry">
            <mxPoint x="720" y="540" as="sourcePoint" />
            <mxPoint x="770" y="490" as="targetPoint" />
          </mxGeometry>
        </mxCell>
        <mxCell id="DCC2djBZjVlrh-Dwz2gE-27" value="" style="endArrow=classic;html=1;rounded=0;exitX=1;exitY=0.5;exitDx=0;exitDy=0;entryX=0.5;entryY=0;entryDx=0;entryDy=0;" parent="1" source="DCC2djBZjVlrh-Dwz2gE-5" target="DCC2djBZjVlrh-Dwz2gE-7" edge="1">
          <mxGeometry width="50" height="50" relative="1" as="geometry">
            <mxPoint x="720" y="540" as="sourcePoint" />
            <mxPoint x="770" y="490" as="targetPoint" />
          </mxGeometry>
        </mxCell>
        <mxCell id="DCC2djBZjVlrh-Dwz2gE-28" value="" style="endArrow=classic;html=1;rounded=0;exitX=0.25;exitY=1;exitDx=0;exitDy=0;entryX=0.5;entryY=0;entryDx=0;entryDy=0;" parent="1" source="DCC2djBZjVlrh-Dwz2gE-7" target="DCC2djBZjVlrh-Dwz2gE-14" edge="1">
          <mxGeometry width="50" height="50" relative="1" as="geometry">
            <mxPoint x="720" y="540" as="sourcePoint" />
            <mxPoint x="770" y="490" as="targetPoint" />
          </mxGeometry>
        </mxCell>
        <mxCell id="DCC2djBZjVlrh-Dwz2gE-31" value="" style="endArrow=classic;html=1;rounded=0;exitX=0.75;exitY=1;exitDx=0;exitDy=0;entryX=0.5;entryY=0;entryDx=0;entryDy=0;" parent="1" source="DCC2djBZjVlrh-Dwz2gE-7" target="DCC2djBZjVlrh-Dwz2gE-12" edge="1">
          <mxGeometry width="50" height="50" relative="1" as="geometry">
            <mxPoint x="720" y="540" as="sourcePoint" />
            <mxPoint x="770" y="490" as="targetPoint" />
          </mxGeometry>
        </mxCell>
        <mxCell id="DCC2djBZjVlrh-Dwz2gE-32" value="Score" style="rounded=0;whiteSpace=wrap;html=1;" parent="1" vertex="1">
          <mxGeometry x="735" y="711" width="120" height="60" as="geometry" />
        </mxCell>
        <mxCell id="DCC2djBZjVlrh-Dwz2gE-33" value="" style="endArrow=classic;html=1;rounded=0;exitX=0.5;exitY=1;exitDx=0;exitDy=0;entryX=0.75;entryY=0;entryDx=0;entryDy=0;" parent="1" source="DCC2djBZjVlrh-Dwz2gE-3" target="DCC2djBZjVlrh-Dwz2gE-32" edge="1">
          <mxGeometry width="50" height="50" relative="1" as="geometry">
            <mxPoint x="739" y="561" as="sourcePoint" />
            <mxPoint x="789" y="511" as="targetPoint" />
          </mxGeometry>
        </mxCell>
        <mxCell id="Mna6kPF5sU9htUVXzl2k-1" value="Deck" style="rounded=0;whiteSpace=wrap;html=1;" vertex="1" parent="1">
          <mxGeometry x="496" y="588" width="120" height="60" as="geometry" />
        </mxCell>
        <mxCell id="Mna6kPF5sU9htUVXzl2k-2" value="" style="endArrow=classic;html=1;rounded=0;exitX=0.5;exitY=1;exitDx=0;exitDy=0;entryX=0.25;entryY=0;entryDx=0;entryDy=0;" edge="1" parent="1" source="DCC2djBZjVlrh-Dwz2gE-2" target="DCC2djBZjVlrh-Dwz2gE-32">
          <mxGeometry width="50" height="50" relative="1" as="geometry">
            <mxPoint x="820" y="525" as="sourcePoint" />
            <mxPoint x="870" y="475" as="targetPoint" />
          </mxGeometry>
        </mxCell>
        <mxCell id="Mna6kPF5sU9htUVXzl2k-5" value="" style="endArrow=classic;html=1;rounded=0;exitX=0.25;exitY=1;exitDx=0;exitDy=0;entryX=0.5;entryY=0;entryDx=0;entryDy=0;" edge="1" parent="1" source="DCC2djBZjVlrh-Dwz2gE-1" target="Mna6kPF5sU9htUVXzl2k-1">
          <mxGeometry width="50" height="50" relative="1" as="geometry">
            <mxPoint x="801" y="504" as="sourcePoint" />
            <mxPoint x="851" y="454" as="targetPoint" />
          </mxGeometry>
        </mxCell>
        <mxCell id="Mna6kPF5sU9htUVXzl2k-6" value="" style="endArrow=classic;html=1;rounded=0;exitX=0.5;exitY=1;exitDx=0;exitDy=0;entryX=0.5;entryY=0;entryDx=0;entryDy=0;" edge="1" parent="1" source="Mna6kPF5sU9htUVXzl2k-1" target="DCC2djBZjVlrh-Dwz2gE-4">
          <mxGeometry width="50" height="50" relative="1" as="geometry">
            <mxPoint x="801" y="504" as="sourcePoint" />
            <mxPoint x="851" y="454" as="targetPoint" />
          </mxGeometry>
        </mxCell>
        <mxCell id="Mna6kPF5sU9htUVXzl2k-7" value="Mode" style="rounded=0;whiteSpace=wrap;html=1;" vertex="1" parent="1">
          <mxGeometry x="703" y="511" width="120" height="60" as="geometry" />
        </mxCell>
        <mxCell id="Mna6kPF5sU9htUVXzl2k-9" value="" style="endArrow=classic;html=1;rounded=0;exitX=0.75;exitY=1;exitDx=0;exitDy=0;entryX=0.5;entryY=0;entryDx=0;entryDy=0;" edge="1" parent="1" source="DCC2djBZjVlrh-Dwz2gE-1" target="Mna6kPF5sU9htUVXzl2k-7">
          <mxGeometry width="50" height="50" relative="1" as="geometry">
            <mxPoint x="801" y="379" as="sourcePoint" />
            <mxPoint x="851" y="329" as="targetPoint" />
          </mxGeometry>
        </mxCell>
        <mxCell id="Mna6kPF5sU9htUVXzl2k-10" value="" style="endArrow=classic;html=1;rounded=0;exitX=0.308;exitY=0.958;exitDx=0;exitDy=0;exitPerimeter=0;" edge="1" parent="1" source="Mna6kPF5sU9htUVXzl2k-7" target="DCC2djBZjVlrh-Dwz2gE-2">
          <mxGeometry width="50" height="50" relative="1" as="geometry">
            <mxPoint x="801" y="379" as="sourcePoint" />
            <mxPoint x="851" y="329" as="targetPoint" />
          </mxGeometry>
        </mxCell>
        <mxCell id="Mna6kPF5sU9htUVXzl2k-11" value="" style="endArrow=classic;html=1;rounded=0;exitX=0.75;exitY=1;exitDx=0;exitDy=0;entryX=0.5;entryY=0;entryDx=0;entryDy=0;" edge="1" parent="1" source="Mna6kPF5sU9htUVXzl2k-7" target="DCC2djBZjVlrh-Dwz2gE-3">
          <mxGeometry width="50" height="50" relative="1" as="geometry">
            <mxPoint x="801" y="379" as="sourcePoint" />
            <mxPoint x="851" y="329" as="targetPoint" />
          </mxGeometry>
        </mxCell>
      </root>
    </mxGraphModel>
  </diagram>
</mxfile>
